<svg height="800px" width="800px" version="1.1" id="Layer_1"
    xmlns="http://www.w3.org/2000/svg"
    xmlns:xlink="http://www.w3.org/1999/xlink" viewBox="0 0 511.999 511.999" xml:space="preserve">
    <path style="fill:#005A95;" d="M415.18,0H96.819c-27.449,0-49.78,22.332-49.78,49.78v412.438c0,27.449,22.332,49.78,49.78,49.78
	H415.18c27.449,0,49.78-22.332,49.78-49.78V49.78C464.961,22.332,442.629,0,415.18,0z"/>
    <path style="fill:#31AAEF;" d="M255.999,0H96.819c-27.449,0-49.78,22.332-49.78,49.78v412.438c0,27.449,22.332,49.78,49.78,49.78
	h159.18V0z"/>
    <path style="fill:#005A95;" d="M394.467,165.97c0,10.659-8.642,19.301-19.301,19.301H136.834c-10.659,0-19.301-8.642-19.301-19.301
	v-60.422c0-10.659,8.642-19.301,19.301-19.301h238.332c10.659,0,19.301,8.642,19.301,19.301V165.97z"/>
    <path style="fill:#9CD8FF;" d="M394.467,146.948c0,10.659-8.642,19.301-19.301,19.301H136.834c-10.659,0-19.301-8.642-19.301-19.301
	V86.526c0-10.659,8.642-19.301,19.301-19.301h238.332c10.659,0,19.301,8.642,19.301,19.301V146.948z"/>
    <path style="fill:#66ACD3;" d="M301.595,267.557c0,4.301-3.487,7.788-7.788,7.788h-73.379c-4.301,0-7.788-3.487-7.788-7.788v-41.015
	c0-4.301,3.487-7.788,7.788-7.788h73.38c4.301,0,7.788,3.487,7.788,7.788v41.015H301.595z"/>
    <path style="fill:#9CD8FF;" d="M180,267.557c0,4.301-3.487,7.788-7.788,7.788h-73.38c-4.301,0-7.788-3.487-7.788-7.788v-41.015
	c0-4.301,3.487-7.788,7.788-7.788h73.38c4.301,0,7.788,3.487,7.788,7.788V267.557z"/>
    <g>
        <path style="fill:#66ACD3;" d="M420.954,267.557c0,4.301-3.487,7.788-7.788,7.788h-73.38c-4.301,0-7.788-3.487-7.788-7.788v-41.015
		c0-4.301,3.487-7.788,7.788-7.788h73.38c4.301,0,7.788,3.487,7.788,7.788V267.557z"/>
        <path style="fill:#66ACD3;" d="M301.595,355.584c0,4.301-3.487,7.788-7.788,7.788h-73.379c-4.301,0-7.788-3.487-7.788-7.788
		v-41.015c0-4.301,3.487-7.788,7.788-7.788h73.38c4.301,0,7.788,3.487,7.788,7.788v41.015H301.595z"/>
    </g>
    <path style="fill:#9CD8FF;" d="M180,355.584c0,4.301-3.487,7.788-7.788,7.788h-73.38c-4.301,0-7.788-3.487-7.788-7.788v-41.015
	c0-4.301,3.487-7.788,7.788-7.788h73.38c4.301,0,7.788,3.487,7.788,7.788V355.584z"/>
    <path style="fill:#66ACD3;" d="M301.595,442.865c0,4.301-3.487,7.788-7.788,7.788h-73.379c-4.301,0-7.788-3.487-7.788-7.788v-41.015
	c0-4.301,3.487-7.788,7.788-7.788h73.38c4.301,0,7.788,3.487,7.788,7.788v41.015H301.595z"/>
    <path style="fill:#9CD8FF;" d="M180,442.865c0,4.301-3.487,7.788-7.788,7.788h-73.38c-4.301,0-7.788-3.487-7.788-7.788v-41.015
	c0-4.301,3.487-7.788,7.788-7.788h73.38c4.301,0,7.788,3.487,7.788,7.788V442.865z"/>
    <path style="fill:#FF0029;" d="M413.167,306.78h-73.38c-4.301,0-7.787,3.487-7.787,7.788v79.493v12.577v36.226
	c0,4.301,3.487,7.787,7.787,7.787h73.38c4.301,0,7.787-3.487,7.787-7.787V406.64v-12.577v-79.493
	C420.954,310.267,417.467,306.78,413.167,306.78z"/>
    <path style="fill:#FFFFFF;" d="M256,67.224H136.834c-10.659,0-19.301,8.642-19.301,19.301v60.422
	c0,10.659,8.642,19.301,19.301,19.301H256L256,67.224L256,67.224z"/>
    <g>
        <path style="fill:#9CD8FF;" d="M257.119,218.754h-36.69c-4.301,0-7.788,3.487-7.788,7.787v41.015c0,4.301,3.487,7.788,7.788,7.788
		h36.689v-56.59H257.119z"/>
        <path style="fill:#9CD8FF;" d="M257.119,306.78h-36.69c-4.301,0-7.788,3.487-7.788,7.787v41.015c0,4.301,3.487,7.788,7.788,7.788
		h36.689v-56.59H257.119z"/>
        <path style="fill:#9CD8FF;" d="M257.119,394.061h-36.69c-4.301,0-7.788,3.487-7.788,7.787v41.015c0,4.301,3.487,7.788,7.788,7.788
		h36.689v-56.59H257.119z"/>
    </g>
</svg>